<svg width="140" height="140" viewBox="0 0 140 140" fill="none" xmlns="http://www.w3.org/2000/svg">
<path d="M18.5695 71.505L17.5156 73.1325C16.3597 74.9164 15.7083 76.98 15.6306 79.1043C15.5529 81.2285 16.0517 83.3342 17.0742 85.1978L25.4645 100.497C26.2724 101.97 27.3862 103.252 28.7311 104.259L39.6083 112.402C41.5647 113.867 43.9281 114.686 46.3711 114.747L79.3975 115.568C80.6327 115.599 81.865 115.435 83.0492 115.082L105.303 108.451C108.203 107.588 110.659 105.641 112.161 103.015L122.543 84.8653C123.964 82.3803 124.431 79.4627 123.856 76.6583C123.282 73.8539 121.706 71.3548 119.422 69.6286" fill="#61B2E4"/>
<path d="M38.3153 50.2308L18.5714 63.1555L26.6894 79.3975L42.6164 91.3208H80.9414L106.661 82.4192L119.422 59.9044L94.1442 44.3975L58.658 55.578L38.3153 50.2308Z" fill="white"/>
<path d="M18.5714 63.1556V76.7667L26.6894 93.0086L42.6164 104.932H80.9414L106.661 96.0303L119.422 73.5156V59.9044" fill="white"/>
<path d="M64.0053 104.932L66.1928 99.085L63.2761 96.4114L65.3411 91.3208M58.6581 55.5781L66.7994 65.9089L60.6025 73.0781L62.7278 79.3975L59.2667 83.5295C59.8255 86.1712 60.5555 88.7738 61.4522 91.3208" fill="white"/>
<path d="M38.3153 50.2308L18.5714 63.1555L26.6894 79.3975L42.6164 91.3208H80.9414L106.661 82.4192L119.422 59.9044L94.1442 44.3975L58.658 55.578L38.3153 50.2308Z" stroke="black" stroke-width="2" stroke-linecap="round" stroke-linejoin="round"/>
<path d="M18.5714 63.1555V76.7667L26.6894 93.0086L42.6164 104.932H80.9414L106.661 96.0303L119.422 73.5155V59.9044" stroke="black" stroke-width="2" stroke-linecap="round" stroke-linejoin="round"/>
</svg>
