<svg width="75" height="75" viewBox="0 0 75 75" fill="none" xmlns="http://www.w3.org/2000/svg">
<path d="M55.0638 68.8749C55.9893 68.1457 56.4355 66.906 56.0947 65.7019C55.6437 64.108 53.9861 63.1815 52.3922 63.6325C52.3072 63.6565 52.219 63.6861 52.1379 63.7169L51.3697 64.0104C50.7066 64.2637 50.0416 64.5117 49.3746 64.7546C48.9391 64.9124 48.502 65.0658 48.0634 65.2148C47.602 65.3697 47.1161 65.5302 46.6219 65.6767C46.1247 65.8289 45.621 65.9637 45.114 66.0895C44.6214 66.2083 44.1244 66.3079 43.6241 66.388C43.1455 66.4575 42.6866 66.4997 42.2754 66.5076C41.8654 66.5143 41.5204 66.4767 41.248 66.4229C40.9751 66.3669 40.7805 66.2985 40.6169 66.2127C40.4609 66.1213 40.322 65.9902 40.1849 65.8266C40.0652 65.6411 39.9475 65.4341 39.8694 65.2069C39.8347 65.0941 39.7859 64.9803 39.7629 64.8876C39.7418 64.8018 39.7187 64.7165 39.6935 64.6318C39.6669 64.575 39.6557 64.4311 39.6426 64.3336L39.6105 64.0737L39.5839 63.8574L39.5615 63.6753C39.4302 62.6106 38.5361 61.8287 37.4949 61.804C37.4725 61.8031 37.4501 61.8022 37.4276 61.802C37.4052 61.8022 37.3828 61.8031 37.3604 61.804C36.319 61.8287 35.4251 62.6106 35.2938 63.6753L35.2714 63.8574L35.2447 64.0737L35.2127 64.3336C35.1996 64.4311 35.1883 64.5751 35.1618 64.6318C35.1367 64.7165 35.1135 64.8018 35.0924 64.8876C35.0694 64.9803 35.0206 65.0941 34.9859 65.2069C34.9078 65.4341 34.7902 65.6411 34.6704 65.8266C34.5334 65.9902 34.3945 66.1213 34.2384 66.2127C34.0749 66.2985 33.8802 66.3669 33.6073 66.4229C33.3349 66.4767 32.9899 66.5143 32.5799 66.5076C32.1687 66.4997 31.7098 66.4575 31.2312 66.388C30.7309 66.3079 30.2339 66.2083 29.7413 66.0895C29.2343 65.9637 28.7306 65.8289 28.2334 65.6767C27.7392 65.5302 27.2531 65.3697 26.7917 65.2148C26.3531 65.0658 25.916 64.9124 25.4805 64.7546C24.8135 64.5118 24.1485 64.2637 23.4854 64.0104L22.7172 63.7169C22.6337 63.6852 22.5489 63.657 22.4629 63.6325C20.869 63.1815 19.2113 64.108 18.7604 65.7019C18.4197 66.906 18.8659 68.1457 19.7914 68.8749C18.9482 69.4085 18.3879 70.3481 18.3916 71.4196C18.3973 73.0765 19.7451 74.4149 21.402 74.4092L21.6642 74.4083L22.4776 74.4056C22.9956 74.4009 23.7355 74.3947 24.6253 74.3714C26.406 74.3237 28.7824 74.2242 31.1956 73.945C31.7984 73.8776 32.4054 73.7927 33.005 73.6999C33.6063 73.6017 34.2 73.4957 34.7829 73.3652C35.3662 73.2338 35.9336 73.0922 36.4869 72.913C36.7601 72.832 37.0364 72.7255 37.299 72.6311L37.4273 72.5782L37.5557 72.6311C37.8183 72.7254 38.0946 72.832 38.3678 72.913C38.9211 73.0922 39.4884 73.2338 40.0718 73.3652C40.6547 73.4957 41.2484 73.6017 41.8497 73.6999C42.4494 73.7927 43.0563 73.8776 43.6591 73.945C46.0721 74.2242 48.4487 74.3237 50.2293 74.3714C51.1192 74.3947 51.8591 74.4009 52.3771 74.4056L53.1905 74.4083L53.4527 74.4092C55.1096 74.4149 56.4574 73.0765 56.4631 71.4196C56.4672 70.3481 55.9069 69.4085 55.0638 68.8749Z" fill="#FFB636"/>
<path d="M56.053 49.1516C56.053 60.4494 47.7464 69.608 37.5 69.608C27.2536 69.608 18.947 60.4494 18.947 49.1516C18.947 37.8539 27.2534 18.3983 37.5 18.3983C47.7466 18.3983 56.053 37.8539 56.053 49.1516Z" fill="#E5E4DF"/>
<path d="M68.7904 50.9896C68.7807 49.9353 68.7026 48.7629 68.5443 47.5083C68.2292 44.9985 67.5837 42.1663 66.6103 39.2558C66.1235 37.8009 65.5566 36.3253 64.9185 34.856C64.2708 33.3733 63.5696 31.9146 62.8162 30.4828C62.0597 29.0433 61.2658 27.6226 60.4219 26.2564C59.5814 24.8886 58.7061 23.5673 57.8089 22.3165C56.9295 21.0976 56.0296 19.9465 55.1252 18.8812C55.1773 18.8793 55.2215 18.8977 55.2566 18.9397C54.6916 17.8749 49.022 0.732422 37.5 0.732422C25.6863 0.732422 20.0241 18.7569 19.7095 18.992L19.7325 19.05C18.8761 20.0678 18.0243 21.1614 17.1913 22.3163C16.2941 23.5671 15.4188 24.8883 14.5783 26.2563C13.7344 27.6226 12.9404 29.0433 12.1838 30.4827C11.4304 31.9145 10.7291 33.3731 10.0815 34.8558C9.44342 36.3253 8.87637 37.8007 8.38961 39.2556C7.41622 42.1661 6.77066 44.9984 6.45572 47.5081C6.29737 48.7627 6.21929 49.9352 6.20963 50.9895C6.20245 51.5153 6.21695 52.0137 6.24273 52.4767C6.25445 52.7065 6.27657 52.9318 6.29547 53.1451C6.31436 53.3571 6.33326 53.5617 6.36109 53.7567C6.46773 54.536 6.59869 55.1474 6.73038 55.5683C6.7856 55.7741 6.85181 55.939 6.88844 56.044L6.94967 56.2046C7.01086 56.3653 7.11707 56.5049 7.25558 56.6067C7.39409 56.7086 7.55903 56.7684 7.73063 56.7789C7.90224 56.7894 8.07324 56.7502 8.22316 56.6661C8.37308 56.5819 8.49556 56.4563 8.57594 56.3043L8.62867 56.2046L8.89146 55.7079C9.14005 55.2471 9.39836 54.7917 9.66622 54.3419C9.85242 54.0186 10.0437 53.6983 10.24 53.3811L10.9229 52.2545L12.5591 49.5574C13.0144 48.8008 13.4937 47.9936 13.9881 47.1448C13.8857 48.2413 13.8325 49.2829 13.8325 50.2547C13.8325 64.4824 25.1539 71.4233 37.5002 71.4233C49.8464 71.4233 61.1676 64.4824 61.1676 50.2547C61.1676 49.2829 61.1145 48.2413 61.0121 47.1448C61.4826 47.9524 61.959 48.7566 62.441 49.5574L64.0773 52.2545L64.7602 53.3811C64.9564 53.6984 65.1477 54.0187 65.3339 54.3419C65.6018 54.7917 65.8601 55.2471 66.1087 55.7079L66.3715 56.2046L66.425 56.3057C66.5055 56.4574 66.6281 56.5827 66.778 56.6666C66.9279 56.7505 67.0988 56.7895 67.2703 56.7788C67.4418 56.7681 67.6065 56.7083 67.7449 56.6065C67.8832 56.5047 67.9893 56.3651 68.0505 56.2046L68.1117 56.044C68.1484 55.939 68.2144 55.7741 68.2698 55.5683C68.4015 55.1473 68.5324 54.5358 68.6391 53.7567C68.6669 53.5617 68.6859 53.3571 68.7047 53.1451C68.7236 52.932 68.7459 52.7065 68.7574 52.4767C68.7831 52.0138 68.7976 51.5155 68.7904 50.9896ZM37.5 69.6081C27.2534 69.6081 18.947 60.4494 18.947 49.1517C18.947 42.5465 21.7869 33.1547 26.193 26.4908C29.0004 29.5437 33.0256 31.4584 37.5 31.4584C41.9744 31.4584 45.9996 29.5437 48.807 26.4908C53.2131 33.1547 56.053 42.5465 56.053 49.1517C56.053 60.4494 47.7466 69.6081 37.5 69.6081Z" fill="#626566"/>
<path d="M48.1222 15.4979C48.123 15.4635 48.1248 15.4292 48.1248 15.3945V10.5746C48.1248 8.40894 46.3693 6.65347 44.2037 6.65347C42.0381 6.65347 40.2826 8.40894 40.2826 10.5746V15.3945C40.2826 15.4292 40.2844 15.4636 40.2852 15.4981C40.2069 15.8154 40.1672 16.1411 40.1672 16.4679C40.1672 17.9055 38.9978 19.0751 37.5601 19.0751C36.1223 19.0751 34.9528 17.9055 34.9528 16.4679C34.9528 16.1335 34.9113 15.809 34.8347 15.4983C34.8356 15.4638 34.8373 15.4292 34.8373 15.3943V10.5746C34.8373 8.40894 33.0819 6.65347 30.9163 6.65347C28.7506 6.65347 26.9952 8.40894 26.9952 10.5746V15.3945C26.9952 15.4292 26.9969 15.4636 26.9978 15.4982C26.9194 15.8155 26.8798 16.1412 26.8797 16.4681C26.8797 22.3572 31.6709 27.1484 37.5601 27.1484C43.4492 27.1484 48.2404 22.3572 48.2404 16.4681C48.2402 16.1411 48.2005 15.8153 48.1222 15.4979Z" fill="#E5E4DF"/>
<path d="M30.9161 10.028C31.951 10.028 32.79 10.8669 32.79 11.9018V14.2052C32.79 15.2401 31.951 16.079 30.9161 16.079C29.8812 16.079 29.0423 15.2401 29.0423 14.2052V11.9018C29.0424 10.8669 29.8814 10.028 30.9161 10.028ZM44.2037 10.028C43.1688 10.028 42.3299 10.8669 42.3299 11.9018V14.2052C42.3299 15.2401 43.1688 16.079 44.2037 16.079C45.2386 16.079 46.0776 15.2401 46.0776 14.2052V11.9018C46.0774 10.8669 45.2385 10.028 44.2037 10.028Z" fill="#132028"/>
<path d="M39.7788 13.9005C39.7788 13.9005 39.81 13.8984 39.8664 13.9018C39.923 13.9047 40.0065 13.9071 40.109 13.9214L40.28 13.9422L40.3756 13.9585C40.407 13.963 40.4363 13.9661 40.4676 13.9721C40.5924 13.9923 40.7316 14.0188 40.8803 14.0583C41.0352 14.0956 41.2106 14.1437 41.3883 14.204C41.5676 14.2626 41.7598 14.3279 41.9536 14.4084C42.0508 14.4466 42.1512 14.4867 42.2514 14.5317C42.352 14.5746 42.4539 14.6186 42.5553 14.6691C42.7604 14.7623 42.9674 14.8701 43.1752 14.975C43.3831 15.0842 43.5915 15.1913 43.7957 15.3082C44.0013 15.4195 44.2014 15.5413 44.3969 15.6555C44.5913 15.7751 44.7795 15.8921 44.9577 16.0091L45.4583 16.3531C45.6139 16.4591 45.7539 16.5732 45.8799 16.6651C46.0058 16.7577 46.1133 16.8533 46.2032 16.9238C46.2929 16.9967 46.3619 17.0618 46.4095 17.1022L46.4807 17.169L46.7269 17.4C46.8264 17.4933 46.8847 17.6224 46.8891 17.7587C46.8934 17.895 46.8435 18.0275 46.7502 18.127C46.6925 18.1879 46.6209 18.2339 46.5415 18.2611C46.4622 18.2883 46.3774 18.2959 46.2945 18.2832C46.2945 18.2832 46.1752 18.2643 45.971 18.2361C45.8679 18.2251 45.7443 18.2061 45.6006 18.1934C45.4569 18.1806 45.2959 18.1608 45.1183 18.1482L44.5452 18.1061L43.9018 18.0708L43.2086 18.0469C42.9731 18.0349 42.7298 18.0368 42.4876 18.0316C42.2452 18.0262 42.0031 18.0176 41.7608 18.0217C41.5185 18.0233 41.2825 18.0151 41.0477 18.0242C40.8132 18.0303 40.5888 18.0294 40.3698 18.0403C40.1502 18.05 39.947 18.0523 39.7488 18.0664C39.548 18.0747 39.3633 18.0788 39.1955 18.0918L38.9717 18.1074L38.7882 18.1267C38.6777 18.1373 38.5891 18.1513 38.5289 18.16L38.4366 18.1733C37.2929 18.3391 36.2311 17.5463 36.0653 16.4026C35.8995 15.2588 36.6923 14.1971 37.836 14.0313C37.8905 14.0234 37.9449 14.0177 37.9988 14.014L39.7788 13.9005Z" fill="#FFB636"/>
</svg>
